<svg xmlns="http://www.w3.org/2000/svg" xmlns:xlink="http://www.w3.org/1999/xlink" width="470" zoomAndPan="magnify" viewBox="0 0 352.5 254.250006" height="339" preserveAspectRatio="xMidYMid meet" version="1.0"><defs><g/></defs><g fill="#5e17eb" fill-opacity="1"><g transform="translate(101.208078, 105.968358)"><g><path d="M 11.226562 0 L 16.835938 0 L 16.835938 -74.832031 L 11.226562 -74.832031 Z M 11.226562 0 "/></g></g></g><g fill="#5e17eb" fill-opacity="1"><g transform="translate(118.574819, 150.179311)"><g><path d="M 2.246094 -0.75 L 2.246094 0 L 30.007812 0 L 30.007812 -0.75 C 18.558594 -0.75 13.695312 -11.226562 13.695312 -48.792969 L 13.695312 -61.136719 L 45.050781 -16.386719 L 77.828125 -72.289062 L 77.828125 0 L 83.4375 0 L 83.4375 -74.832031 L 77.828125 -74.832031 L 47.371094 -22.972656 L 11 -74.832031 L 4.117188 -74.832031 L 12.570312 -62.785156 L 12.570312 -15.789062 C 12.570312 -5.613281 9.203125 -0.75 2.246094 -0.75 Z M 2.246094 -0.75 "/></g></g></g><g fill="#5e17eb" fill-opacity="1"><g transform="translate(213.231003, 150.179311)"><g><path d="M 2.246094 -74.832031 L 33.75 -33.601562 L 33.75 -13.320312 C 33.75 -6.210938 31.65625 -0.824219 25.367188 -0.824219 L 23.273438 -0.824219 L 23.273438 0 L 49.839844 0 L 49.839844 -0.824219 L 47.742188 -0.824219 C 41.457031 -0.824219 39.363281 -6.210938 39.363281 -13.320312 L 39.363281 -33.601562 C 40.335938 -34.871094 43.027344 -38.988281 47.816406 -46.320312 C 55.675781 -58.371094 64.132812 -74.085938 72.664062 -74.085938 L 72.664062 -74.832031 L 43.851562 -74.832031 L 43.851562 -74.085938 C 48.714844 -74.085938 54.628906 -72.363281 54.628906 -65.777344 C 54.628906 -57.621094 45.796875 -44.675781 39.585938 -35.171875 L 9.28125 -74.832031 Z M 2.246094 -74.832031 "/></g></g></g><g fill="#5e17eb" fill-opacity="1"><g transform="translate(64.949798, 195.139119)"><g><path d="M 2.246094 -0.75 L 2.246094 0 L 30.007812 0 L 30.007812 -0.75 C 18.558594 -0.75 13.695312 -11.226562 13.695312 -48.792969 L 13.695312 -61.136719 L 45.050781 -16.386719 L 77.828125 -72.289062 L 77.828125 0 L 83.4375 0 L 83.4375 -74.832031 L 77.828125 -74.832031 L 47.371094 -22.972656 L 11 -74.832031 L 4.117188 -74.832031 L 12.570312 -62.785156 L 12.570312 -15.789062 C 12.570312 -5.613281 9.203125 -0.75 2.246094 -0.75 Z M 2.246094 -0.75 "/></g></g></g><g fill="#5e17eb" fill-opacity="1"><g transform="translate(159.605982, 195.139119)"><g><path d="M 2.246094 -74.832031 L 2.246094 -74.085938 L 4.339844 -74.011719 C 10.625 -73.785156 12.722656 -68.621094 12.722656 -61.511719 L 12.722656 -13.320312 C 12.722656 -6.210938 10.625 -0.75 4.339844 -0.75 L 2.246094 -0.75 L 2.246094 0 L 66.375 0 L 66.375 -7.410156 C 53.207031 -1.644531 38.164062 -1.121094 26.714844 -1.121094 C 20.429688 -1.121094 18.335938 -6.210938 18.335938 -13.320312 L 18.335938 -37.417969 L 64.132812 -37.417969 L 64.132812 -42.65625 L 18.335938 -42.65625 L 18.335938 -61.511719 C 18.335938 -68.621094 20.429688 -73.710938 26.714844 -73.710938 C 38.164062 -73.710938 53.207031 -73.1875 66.375 -67.425781 L 66.375 -74.832031 Z M 2.246094 -74.832031 "/></g></g></g></svg>