<svg xmlns="http://www.w3.org/2000/svg" xmlns:xlink="http://www.w3.org/1999/xlink" width="470" zoomAndPan="magnify" viewBox="0 0 352.5 253.499997" height="338" preserveAspectRatio="xMidYMid meet" version="1.0"><defs><g/></defs><g fill="#000000" fill-opacity="1"><g transform="translate(101.125308, 104.284689)"><g><path d="M 11.234375 0 L 16.851562 0 L 16.851562 -74.898438 L 11.234375 -74.898438 Z M 11.234375 0 "/></g></g></g><g fill="#000000" fill-opacity="1"><g transform="translate(118.517559, 148.538767)"><g><path d="M 2.246094 -0.75 L 2.246094 0 L 30.035156 0 L 30.035156 -0.75 C 18.574219 -0.75 13.707031 -11.234375 13.707031 -48.832031 L 13.707031 -61.191406 L 45.089844 -16.402344 L 77.894531 -72.351562 L 77.894531 0 L 83.511719 0 L 83.511719 -74.898438 L 77.894531 -74.898438 L 47.410156 -22.992188 L 11.011719 -74.898438 L 4.121094 -74.898438 L 12.582031 -62.839844 L 12.582031 -15.804688 C 12.582031 -5.617188 9.210938 -0.75 2.246094 -0.75 Z M 2.246094 -0.75 "/></g></g></g><g fill="#000000" fill-opacity="1"><g transform="translate(213.255183, 148.538767)"><g><path d="M 2.246094 -74.898438 L 33.777344 -33.628906 L 33.777344 -13.332031 C 33.777344 -6.214844 31.679688 -0.824219 25.390625 -0.824219 L 23.292969 -0.824219 L 23.292969 0 L 49.882812 0 L 49.882812 -0.824219 L 47.785156 -0.824219 C 41.492188 -0.824219 39.394531 -6.214844 39.394531 -13.332031 L 39.394531 -33.628906 C 40.371094 -34.902344 43.066406 -39.019531 47.859375 -46.359375 C 55.722656 -58.417969 64.1875 -74.148438 72.726562 -74.148438 L 72.726562 -74.898438 L 43.890625 -74.898438 L 43.890625 -74.148438 C 48.757812 -74.148438 54.675781 -72.425781 54.675781 -65.835938 C 54.675781 -57.671875 45.835938 -44.714844 39.621094 -35.203125 L 9.289062 -74.898438 Z M 2.246094 -74.898438 "/></g></g></g><g fill="#000000" fill-opacity="1"><g transform="translate(64.841712, 193.542441)"><g><path d="M 2.246094 -0.75 L 2.246094 0 L 30.035156 0 L 30.035156 -0.75 C 18.574219 -0.75 13.707031 -11.234375 13.707031 -48.832031 L 13.707031 -61.191406 L 45.089844 -16.402344 L 77.894531 -72.351562 L 77.894531 0 L 83.511719 0 L 83.511719 -74.898438 L 77.894531 -74.898438 L 47.410156 -22.992188 L 11.011719 -74.898438 L 4.121094 -74.898438 L 12.582031 -62.839844 L 12.582031 -15.804688 C 12.582031 -5.617188 9.210938 -0.75 2.246094 -0.75 Z M 2.246094 -0.75 "/></g></g></g><g fill="#000000" fill-opacity="1"><g transform="translate(159.579337, 193.542441)"><g><path d="M 2.246094 -74.898438 L 2.246094 -74.148438 L 4.34375 -74.074219 C 10.636719 -73.847656 12.734375 -68.679688 12.734375 -61.566406 L 12.734375 -13.332031 C 12.734375 -6.214844 10.636719 -0.75 4.34375 -0.75 L 2.246094 -0.75 L 2.246094 0 L 66.433594 0 L 66.433594 -7.414062 C 53.25 -1.648438 38.199219 -1.125 26.738281 -1.125 C 20.445312 -1.125 18.351562 -6.214844 18.351562 -13.332031 L 18.351562 -37.449219 L 64.1875 -37.449219 L 64.1875 -42.691406 L 18.351562 -42.691406 L 18.351562 -61.566406 C 18.351562 -68.679688 20.445312 -73.773438 26.738281 -73.773438 C 38.199219 -73.773438 53.25 -73.25 66.433594 -67.480469 L 66.433594 -74.898438 Z M 2.246094 -74.898438 "/></g></g></g></svg>